<svg width="28" height="28" viewBox="0 0 28 28" fill="none" xmlns="http://www.w3.org/2000/svg">
<g clip-path="url(#clip0)">
<path d="M26.803 7.78318C26.4739 7.64215 26.1024 7.63759 25.77 7.7705C25.4375 7.90342 25.1715 8.16292 25.0304 8.49193L21.3314 17.1238H9.96309L8.72109 2.16178C8.69292 1.8235 8.53834 1.50825 8.28816 1.27883C8.03797 1.04941 7.71054 0.922659 7.37109 0.92383H1.97109C1.61305 0.92383 1.26967 1.06606 1.0165 1.31924C0.763325 1.57241 0.621094 1.91579 0.621094 2.27383C0.621094 2.63187 0.763325 2.97525 1.0165 3.22843C1.26967 3.4816 1.61305 3.62383 1.97109 3.62383H6.12909L7.37109 18.5859C7.39927 18.9242 7.55384 19.2394 7.80403 19.4688C8.05421 19.6983 8.38164 19.825 8.72109 19.8238H22.2211C22.4852 19.8238 22.7436 19.7463 22.9641 19.6009C23.1846 19.4554 23.3577 19.2485 23.4617 19.0057L27.5117 9.55573C27.6528 9.22669 27.6573 8.8551 27.5244 8.52269C27.3915 8.19028 27.132 7.92428 26.803 7.78318Z" fill="white"></path>
<path d="M9.39609 26.5738C10.5145 26.5738 11.4211 25.6672 11.4211 24.5488C11.4211 23.4305 10.5145 22.5238 9.39609 22.5238C8.27772 22.5238 7.37109 23.4305 7.37109 24.5488C7.37109 25.6672 8.27772 26.5738 9.39609 26.5738Z" fill="white"></path>
<path d="M21.5459 26.5738C22.6643 26.5738 23.5709 25.6672 23.5709 24.5488C23.5709 23.4305 22.6643 22.5238 21.5459 22.5238C20.4275 22.5238 19.5209 23.4305 19.5209 24.5488C19.5209 25.6672 20.4275 26.5738 21.5459 26.5738Z" fill="white"></path>
</g>
<defs>
<clipPath id="clip0">
<rect width="27" height="27" fill="white" transform="translate(0.621094 0.923828)"></rect>
</clipPath>
</defs>
</svg>